<svg viewBox="0 0 16 16" xmlns="http://www.w3.org/2000/svg">
  <path d="M15.7485 0.251482C16.1098 0.612729 16.0751 1.24282 15.6876 1.7117L15.592 1.81684L9.40882 8L15.592 14.1832C16.0675 14.6586 16.1376 15.3595 15.7485 15.7485C15.3873 16.1098 14.7572 16.0751 14.2883 15.6876L14.1832 15.592L8 9.40882L1.81684 15.592C1.34135 16.0675 0.640518 16.1376 0.251482 15.7485C-0.109765 15.3873 -0.0751388 14.7572 0.312353 14.2883L0.408017 14.1832L6.59118 8L0.408018 1.81684C-0.0674695 1.34135 -0.137553 0.640518 0.251482 0.251482C0.612729 -0.109765 1.24282 -0.0751388 1.7117 0.312353L1.81684 0.408018L8 6.59118L14.1832 0.408018C14.6586 -0.0674695 15.3595 -0.137553 15.7485 0.251482Z" />
</svg>
